<svg xmlns="http://www.w3.org/2000/svg" viewBox="0 0 83.76 24.81"><defs><style>.cls-1{fill:none;stroke:#fff;stroke-width:0.4px;}.cls-1,.cls-2{fill-rule:evenodd;}.cls-2,.cls-3{fill:#fff;}</style></defs><g id="Слой_2" data-name="Слой 2"><g id="Слой_1-2" data-name="Слой 1"><path class="cls-1" d="M11.82,22.72h0a1.84,1.84,0,0,0-1.52.73,2.89,2.89,0,0,0-.35.73,3,3,0,0,0-.37-.76,1.81,1.81,0,0,0-1.43-.7H1.51a2.15,2.15,0,0,1-.78-.24A.92.92,0,0,1,.3,22a2.52,2.52,0,0,1-.1-.73V.2H19.67v21a2.48,2.48,0,0,1-.11.78.94.94,0,0,1-.49.5,2.31,2.31,0,0,1-.7.2Z"/><path class="cls-2" d="M8.88,3,8.47,2.8l.2.43A1.34,1.34,0,0,1,8.88,3Z"/><path class="cls-2" d="M8.58,3.33l-.45-.11.29.36A1,1,0,0,1,8.58,3.33Z"/><path class="cls-2" d="M8.32,5,8,5.29l.44-.06A1.42,1.42,0,0,1,8.32,5Z"/><path class="cls-2" d="M9.24,2.81,8.9,2.49,9,3Z"/><path class="cls-2" d="M8.22,4.39a1.1,1.1,0,0,1,0-.26l-.44.11.42.17Z"/><path class="cls-2" d="M8.36,3.71H7.9L8.27,4A1.34,1.34,0,0,1,8.36,3.71Z"/><path class="cls-2" d="M8.22,4.56l-.39.21.44.06A2.56,2.56,0,0,1,8.22,4.56Z"/><path class="cls-2" d="M11.45,3.58l.3-.36-.45.11A2.07,2.07,0,0,1,11.45,3.58Z"/><path class="cls-2" d="M9.4,2.29l0,.47a.89.89,0,0,1,.28-.07Z"/><path class="cls-2" d="M11.61,4,12,3.71h-.46A2.77,2.77,0,0,1,11.61,4Z"/><path class="cls-2" d="M10.47,2.29l-.26.4a1.28,1.28,0,0,1,.28.07Z"/><path class="cls-2" d="M11.2,3.23l.2-.43L11,3A1.34,1.34,0,0,1,11.2,3.23Z"/><path class="cls-2" d="M11,2.49l-.35.32a1.48,1.48,0,0,1,.25.14Z"/><path class="cls-2" d="M10.84,5.84l.36.26-.14-.42A1.12,1.12,0,0,1,10.84,5.84Z"/><path class="cls-2" d="M11.6,4.83,12,4.77l-.39-.21C11.63,4.65,11.62,4.74,11.6,4.83Z"/><path class="cls-2" d="M11.18,5.58l.41.16-.24-.38A1.84,1.84,0,0,1,11.18,5.58Z"/><path class="cls-2" d="M11.43,5.22l.44.06L11.55,5A1.45,1.45,0,0,1,11.43,5.22Z"/><path class="cls-2" d="M8.52,5.36l-.24.37.42-.16A1.24,1.24,0,0,1,8.52,5.36Z"/><path class="cls-2" d="M11.65,4.39h0l.43-.17-.45-.11A1.23,1.23,0,0,1,11.65,4.39Z"/><path class="cls-2" d="M9.14,6.36,9.43,6l-.26-.1Z"/><path class="cls-2" d="M8.67,6.1,9,5.84l-.22-.16Z"/><path class="cls-2" d="M9.67,6.5l.18-.4-.27,0Z"/><path class="cls-2" d="M10.21,6.5l.08-.43a1.18,1.18,0,0,1-.27,0Z"/><path class="cls-2" d="M9.93,2.23l-.15.44h.3Z"/><path class="cls-2" d="M10.45,6l.28.33,0-.43Z"/><polygon class="cls-2" points="7.66 4.75 8.15 4.48 7.63 4.28 6.4 4.59 7.66 4.75"/><polygon class="cls-2" points="7.82 5.3 8.23 4.92 7.68 4.85 6.57 5.46 7.82 5.3"/><polygon class="cls-2" points="7.87 5.4 6.95 6.26 8.13 5.8 8.42 5.33 7.87 5.4"/><polygon class="cls-2" points="8.19 5.88 7.51 6.95 8.54 6.2 8.71 5.67 8.19 5.88"/><polygon class="cls-2" points="8.63 6.26 8.23 7.47 9.04 6.5 9.07 5.94 8.63 6.26"/><polygon class="cls-2" points="9.14 6.53 9.05 7.8 9.6 6.65 9.49 6.1 9.14 6.53"/><polygon class="cls-2" points="9.7 6.67 9.93 7.9 10.17 6.67 9.93 6.16 9.7 6.67"/><polygon class="cls-2" points="10.28 6.65 10.81 7.8 10.73 6.53 10.38 6.1 10.28 6.65"/><polygon class="cls-2" points="10.83 6.5 11.64 7.47 11.25 6.26 10.8 5.94 10.83 6.5"/><polygon class="cls-2" points="11.33 6.2 12.36 6.95 11.68 5.88 11.16 5.67 11.33 6.2"/><polygon class="cls-2" points="11.75 5.8 12.92 6.26 12 5.4 11.44 5.33 11.75 5.8"/><polygon class="cls-2" points="12.04 5.3 13.3 5.46 12.19 4.85 11.63 4.92 12.04 5.3"/><path class="cls-2" d="M11.48,4.87a1.76,1.76,0,0,0,.07-.4h0V4.38a1.73,1.73,0,0,0,0-.32h0a1.63,1.63,0,0,0-.13-.37h0a1.85,1.85,0,0,0-.21-.33h0a1.37,1.37,0,0,0-.28-.26h0a1.63,1.63,0,0,0-.34-.19h0a1.64,1.64,0,0,0-.38-.1h0l-.19,0-.19,0h0a1.26,1.26,0,0,0-.38.1h0A1.63,1.63,0,0,0,9,3.07H9a1.79,1.79,0,0,0-.28.27h0a1,1,0,0,0-.21.33h0a1.71,1.71,0,0,0-.13.38h0a1.72,1.72,0,0,0,0,.32v.08h0a1.09,1.09,0,0,0,.07.4,1.65,1.65,0,0,0,.16.36h0a1.53,1.53,0,0,0,.26.31h0a1.27,1.27,0,0,0,.33.24h0A2.15,2.15,0,0,0,9.52,6h0a1.75,1.75,0,0,0,.4,0h0a1.75,1.75,0,0,0,.4,0h0a2.39,2.39,0,0,0,.37-.15h0A1.22,1.22,0,0,0,11,5.55h0a1.48,1.48,0,0,0,.25-.31h0a1.69,1.69,0,0,0,.17-.36Z"/><polygon class="cls-2" points="11.56 3.61 12.11 3.61 13.13 2.86 11.91 3.18 11.56 3.61"/><polygon class="cls-2" points="10.59 2.71 11 2.33 11.23 1.08 10.56 2.15 10.59 2.71"/><polygon class="cls-2" points="9.28 2.71 9.31 2.15 8.63 1.08 8.87 2.33 9.28 2.71"/><polygon class="cls-2" points="8.32 3.61 7.96 3.18 6.73 2.86 7.76 3.61 8.32 3.61"/><polygon class="cls-2" points="8.18 4.04 7.72 3.71 6.46 3.71 7.64 4.17 8.18 4.04"/><polygon class="cls-2" points="8.01 3.09 8.55 3.23 8.32 2.73 7.21 2.12 8.01 3.09"/><polygon class="cls-2" points="8.88 2.92 8.78 2.38 7.86 1.51 8.39 2.65 8.88 2.92"/><polygon class="cls-2" points="9.41 2.12 9.71 2.59 9.88 2.07 9.49 0.86 9.41 2.12"/><polygon class="cls-2" points="10.16 2.59 10.46 2.12 10.38 0.86 9.99 2.07 10.16 2.59"/><polygon class="cls-2" points="11.09 2.38 10.99 2.92 11.47 2.65 12.01 1.51 11.09 2.38"/><polygon class="cls-2" points="11.31 3.23 11.85 3.09 12.66 2.12 11.55 2.73 11.31 3.23"/><polygon class="cls-2" points="12.14 3.71 11.69 4.04 12.23 4.17 13.4 3.71 12.14 3.71"/><polygon class="cls-2" points="11.72 4.48 12.21 4.75 13.46 4.59 12.24 4.28 11.72 4.48"/><rect class="cls-3" x="18.55" y="8.88" width="1.2" height="1.2"/><rect class="cls-3" x="15.34" y="8.9" width="1.16" height="1.16"/><rect class="cls-3" x="12.1" y="8.9" width="1.15" height="1.16"/><rect class="cls-3" x="8.86" y="8.9" width="1.16" height="1.16"/><rect class="cls-3" x="5.63" y="8.9" width="1.16" height="1.16"/><rect class="cls-3" x="2.4" y="8.9" width="1.16" height="1.16"/><rect class="cls-3" x="0.12" y="10.22" width="2.81" height="1"/><rect class="cls-3" x="3.06" y="10.22" width="3.1" height="1"/><rect class="cls-3" x="6.3" y="10.22" width="3.1" height="1"/><rect class="cls-3" x="9.53" y="10.22" width="3.1" height="1"/><rect class="cls-3" x="12.77" y="10.22" width="3.1" height="1"/><rect class="cls-3" x="16.01" y="10.22" width="3.1" height="1"/><rect class="cls-3" x="19.24" y="10.22" width="0.51" height="1"/><rect class="cls-3" x="16.94" y="11.37" width="2.81" height="1"/><rect class="cls-3" x="13.71" y="11.37" width="3.1" height="1"/><rect class="cls-3" x="10.47" y="11.37" width="3.1" height="1"/><rect class="cls-3" x="7.23" y="11.37" width="3.1" height="1"/><rect class="cls-3" x="4" y="11.37" width="3.1" height="1"/><rect class="cls-3" x="0.76" y="11.37" width="3.1" height="1"/><rect class="cls-3" x="0.12" y="11.37" width="0.51" height="1"/><rect class="cls-3" x="0.12" y="12.52" width="2.81" height="1"/><rect class="cls-3" x="3.06" y="12.52" width="3.1" height="1"/><rect class="cls-3" x="6.3" y="12.52" width="3.1" height="1"/><rect class="cls-3" x="9.53" y="12.52" width="3.1" height="1"/><rect class="cls-3" x="12.77" y="12.52" width="3.1" height="1"/><rect class="cls-3" x="19.24" y="12.52" width="0.51" height="1"/><rect class="cls-3" x="16.01" y="12.52" width="3.1" height="1"/><path class="cls-2" d="M.12,13.67v.69l.19.15a2.9,2.9,0,0,0,1.87,1c.83,0,.92-1,.62-1a.16.16,0,0,0-.14.12c-.12.41-.73.38-.69-.25a1,1,0,0,1,.44-.75H.12Z"/><path class="cls-2" d="M3.71,13.67l.23.11c1,.55,1.64,1.77,2.79,1.77.83,0,.92-1,.62-1a.15.15,0,0,0-.14.12c-.12.41-.73.38-.69-.25A1,1,0,0,1,7,13.66H3.71Z"/><path class="cls-2" d="M8.27,13.67l.24.13c.94.55,1.63,1.76,2.77,1.75.82,0,.92-1,.61-1a.14.14,0,0,0-.13.12.37.37,0,0,1-.34.27c-.44,0-.48-.75-.06-1.14l.14-.13H8.27Z"/><path class="cls-2" d="M12.83,13.67l.2.11c1,.55,1.65,1.78,2.79,1.77.83,0,.92-1,.62-1a.14.14,0,0,0-.13.12c-.12.41-.73.38-.69-.25a1,1,0,0,1,.44-.75H12.83Z"/><path class="cls-2" d="M17.39,13.67l.19.11c.76.43,1.37,1.34,2.17,1.63V13.67Z"/><path class="cls-2" d="M14.24,21.53l.14.5a.37.37,0,0,0,.18,0l-.18-.51-.14,0Zm-4.31-.31c0,.11,0,.42,0,.47s0,.41,0,.62c0,.05.09.07.12,0s0-.08,0-.11c0-.37,0-.73,0-1.09a.12.12,0,0,0,0,.08Zm2.32-.12a1.86,1.86,0,0,0,.1.25c.14.32.29.65.43,1h.08c0-.09,0-.16-.07-.23-.13-.26-.26-.51-.4-.76a.84.84,0,0,0-.14-.24Zm-.57,0a2.58,2.58,0,0,0,.08.26c.11.32.2.64.31,1a.39.39,0,0,0,.15,0c-.15-.36-.31-.72-.45-1.08a.3.3,0,0,0-.09-.13Zm-.6,0a.78.78,0,0,0,0,.14c.08.33.15.66.23,1a.94.94,0,0,0,0,.09s.07,0,.11,0l-.33-1.13a.24.24,0,0,0-.06-.11Zm-.58,0a1.32,1.32,0,0,0,0,.28c0,.28.05.56.07.84a.5.5,0,0,0,0,.12.16.16,0,0,0,.12,0l-.18-1.15a.09.09,0,0,0-.05-.09Zm-1.16.09c-.05.32-.11.64-.17,1,0,0,0,.1,0,.12s.11,0,.11,0c0-.25,0-.51.06-.77a2.23,2.23,0,0,0,0-.37.21.21,0,0,0,0,.11Zm-.61.09c-.08.26-.16.52-.25.78a.17.17,0,0,0,0,.1.08.08,0,0,0,.12-.05c.06-.22.1-.43.15-.65a2.7,2.7,0,0,0,.08-.41.92.92,0,0,0-.09.23Zm4.07-.24a.18.18,0,0,1,.1.09c.19.3.37.6.56.89a.37.37,0,0,1,.1.24h-.11a1,1,0,0,1-.09-.13c-.18-.36-.38-.72-.56-1.08Zm.57,0,.09.16c.2.31.4.61.59.92,0,.05.09.05.13,0s0-.06,0-.09l-.59-.81a.58.58,0,0,0-.18-.2Zm-1.8,0c.06,0,.15,0,.21,0v0h-.09l0,0-.06-.06Zm-.58,0a.2.2,0,0,1,.21,0s-.09,0-.13,0a.12.12,0,0,1-.05,0,.17.17,0,0,1,0-.06Zm-.57,0,.09,0,.14.05a.09.09,0,0,1-.13,0l-.07.05s0,0,0-.05Zm-.58,0a.28.28,0,0,1,.22,0s0,0,0,.06L10,21.1l0,.06-.06-.06Zm-.58,0a.24.24,0,0,1,.23,0l-.06.05-.06-.06a.34.34,0,0,1-.06.06l-.05-.05Zm-1.13.18-.31.7a.38.38,0,0,0,0,.1.07.07,0,0,0,.1,0s0-.07.06-.1c.07-.21.14-.42.22-.64s.08-.21.1-.32a.59.59,0,0,0-.14.22Zm4-.2a.33.33,0,0,1,.22,0l0,.05-.07,0-.05,0-.06-.06Zm-3.44,0a.14.14,0,0,1,.19,0v.06l-.05-.06c-.05,0-.1.09-.14,0Zm-1.11,0-.39.77s0,.06,0,.1h.11c.13-.31.27-.62.38-.94a.18.18,0,0,0-.08.07ZM12.7,21l.05.07,0-.05.12,0c0-.11-.13-.08-.21,0ZM8.12,21a.2.2,0,0,1,.22,0s0,0,0,0l-.06,0s-.09.06-.14,0Zm5.16,0a.21.21,0,0,1,.24,0s-.09,0-.14,0a.18.18,0,0,1-.1,0ZM7.09,21a3.15,3.15,0,0,0-.19.27l-.34.49a.33.33,0,0,0,.13.07c.12-.24.24-.48.37-.71a.53.53,0,0,0,0-.12Zm.45,0c0-.06.21,0,.19,0L7.64,21,7.56,21l0-.05ZM7,21a.17.17,0,0,1,.24,0,.14.14,0,0,1-.11,0S7,21,7,21Zm5.17-.6a.19.19,0,0,0-.14.22.21.21,0,0,0,.21.17.2.2,0,0,0,.19-.22.21.21,0,0,0-.26-.17Zm-.48,0a.2.2,0,1,0,.23.08.21.21,0,0,0-.23-.08Zm-.47,0a.19.19,0,0,0-.15.2.2.2,0,0,0,.19.19.2.2,0,1,0,0-.39Zm-.51,0a.2.2,0,0,0-.13.21.21.21,0,0,0,.22.17.21.21,0,0,0,.17-.26.19.19,0,0,0-.26-.12Zm-.48,0a.19.19,0,0,0-.1.29.2.2,0,0,0,.29.06.2.2,0,0,0,0-.26.21.21,0,0,0-.24-.09Zm-.47,0a.2.2,0,0,0,.07.39.2.2,0,0,0,.19-.22.21.21,0,0,0-.26-.17Zm-.48,0a.2.2,0,0,0-.14.2.18.18,0,0,0,.21.19.2.2,0,0,0,.18-.25.2.2,0,0,0-.25-.14Zm-3.08-.09.1.15h.19l-.29-.15Zm7.81,0c0,.07,0,.14.07.21h.16l-.23-.2Zm-.11-.1a.75.75,0,0,1,.15.31H14a1,1,0,0,1-.09-.3Zm-.33,0a.61.61,0,0,1,.16.12l1.54,1.51c-.05,0-.1.1-.17.09a1.29,1.29,0,0,1-.16-.17c-.39-.44-.78-.89-1.18-1.33a2,2,0,0,1-.19-.22ZM9.38,20l.22.32,0-.34-.25,0ZM8.7,20q.32,0,.63,0c.08.14.17.26.26.4a.35.35,0,0,0-.05.08l-.08-.09a.23.23,0,0,0-.29,0,.52.52,0,0,0-.11.1c-.12-.17-.25-.32-.36-.48Zm5.18.15a.89.89,0,0,0-.07-.19.26.26,0,0,0,.07.19Zm-3.51-.26c.12.14.24.3.39.45l-.15,0a.71.71,0,0,0-.1.14,1.71,1.71,0,0,0-.11-.14c0-.16,0-.33,0-.49Zm-1.09,0a.62.62,0,0,0,.08.12h.21l-.29-.12Zm-4.47,0a.27.27,0,0,1,.13-.13s.06.06.08.09-.06.07-.07.12.07.11.12.14c.26.11.51.21.76.33a.72.72,0,0,0,.25,0l3,0a.35.35,0,0,0,.06.19.24.24,0,0,0,.31.07.3.3,0,0,0,.12-.15,1,1,0,0,0,.09.13.27.27,0,0,0,.31,0,.3.3,0,0,0,.09-.13c0,.05.05.11.1.13a.24.24,0,0,0,.27,0,.26.26,0,0,0,.11-.14l.07.11a.28.28,0,0,0,.3,0,.41.41,0,0,0,.12-.14.27.27,0,0,0,.09.12.23.23,0,0,0,.28,0,.38.38,0,0,0,.11-.14.29.29,0,0,0,.08.13.26.26,0,0,0,.3,0,.3.3,0,0,0,.09-.13c0,.05.07.12.12.14a.24.24,0,0,0,.3,0,.23.23,0,0,0,.08-.18c.29,0,.59,0,.88,0a.29.29,0,0,0,0-.09h.44s.06,0,.08.06l.42.47h0l.23.27.11.13c-.27.07-.53.11-.81.16l-.11-.14a3.79,3.79,0,0,1-.25-.35h0s0-.08,0-.1a.19.19,0,0,0-.24,0l.07.08h0c.08.11.15.23.22.35s.06.11.1.15l-.42.07-.11-.16-.23-.36L13,21a.17.17,0,0,0-.27,0,.12.12,0,0,0,.08.09h0c.07.13.14.25.21.39l.08.16-.44.05-.09-.17-.21-.4h0s.06-.06,0-.1a.19.19,0,0,0-.26,0c0,.05,0,.07.09.09h0c.06.14.12.27.17.41a1.22,1.22,0,0,1,.07.17c-.15,0-.3,0-.46,0L12,21.58h0c-.06-.15-.12-.28-.17-.42a.41.41,0,0,0,.05-.09.16.16,0,0,0-.27,0c0,.06.06.07.1.09h0c0,.14.09.28.13.42s0,.12,0,.18l-.5,0,0-.19c-.05-.14-.08-.28-.13-.43l.07-.07c0-.07-.11-.09-.18-.08s-.1,0-.09.09l.06.06h0c0,.15.07.3.11.45l0,.18a4,4,0,0,1-.49,0,1.06,1.06,0,0,1,0-.19c0-.14,0-.29-.08-.44h0s.07-.05.06-.1a.18.18,0,0,0-.26,0c0,.05,0,.08.07.1h0c0,.15,0,.3,0,.45s0,.12,0,.19h-.49c0-.06,0-.13,0-.19a3.39,3.39,0,0,1,0-.45h0s.08-.05.06-.1a.18.18,0,0,0-.21,0s-.05,0-.05.07l.07.07h0c0,.14,0,.29,0,.43s0,.14,0,.21H9.38a1.49,1.49,0,0,0,0-.21c0-.15,0-.3,0-.44l.09-.07c0-.07-.07-.1-.11-.1s-.15,0-.15.1l.06.07-.07.43,0,.22-.5,0a1.74,1.74,0,0,1,0-.22c0-.14.06-.28.09-.42s.08,0,.08-.09a.16.16,0,0,0-.26,0,.24.24,0,0,0,0,.08h.07c0,.14-.1.28-.14.42h0a1.55,1.55,0,0,1-.07.23l-.47,0c0-.08.05-.15.07-.23l.12-.37s0-.07.07-.06.06-.08,0-.11a.19.19,0,0,0-.26,0,.17.17,0,0,1,0,.06h0a4.07,4.07,0,0,1-.18.44c0,.07-.07.14-.11.22l-.45,0,.1-.24L7.7,21h0l0-.06c-.06-.11-.28-.11-.29,0s.09,0,.06.07-.13.25-.19.37-.08.16-.13.24l-.44,0c0-.09.09-.17.13-.25a3.59,3.59,0,0,1,.17-.34s0-.06.08-.08h0c0-.09-.11-.12-.19-.1s-.07.05-.1.08A.71.71,0,0,1,7,21l-.24.36h0l-.17.25c-.86-.11-1.72-.25-2.56-.44a1.81,1.81,0,0,0,.76-.15.45.45,0,0,0,.25-.33.62.62,0,0,0-.16-.43,1.67,1.67,0,0,1-.12-.16.37.37,0,0,1,0-.29Zm5.36-.23v.71h.18c0-.16,0-.31,0-.47s-.11-.17-.16-.24Zm5.6.14a.26.26,0,0,0,.19-.2,1.42,1.42,0,0,1,.28.61.69.69,0,0,1-.06.45,1.15,1.15,0,0,1-.4.39,3,3,0,0,1-.91.33l-.11-.11L14.51,21,14,20.47a4.75,4.75,0,0,0,1.19-.1.9.9,0,0,0,.57-.38.26.26,0,0,0,0-.24Zm-3.21-.44c0,.4,0,.8.07,1.2h.65l0-.09h.46c-.07-.09-.15-.16-.22-.25a.22.22,0,0,1-.05-.12c.17.05.26.21.39.31a1.47,1.47,0,0,0-.08-.28,1.19,1.19,0,0,0-.31-.23l-.94-.55Zm3.11,0a.2.2,0,0,0-.12.28.2.2,0,0,0,.29.08.21.21,0,0,0,0-.32.2.2,0,0,0-.2,0Zm-5.9-.19.21.26c0,.34,0,.69,0,1a.46.46,0,0,0-.17-.09.32.32,0,0,0-.17,0c0-.12,0-.25,0-.37h.1l-.09,0c0-.27.05-.54.08-.81Zm.55-.05c.28.41.55.83.84,1.24a.4.4,0,0,0-.17.17c-.05-.1-.16-.15-.23-.24s-.22-.24-.32-.37a.22.22,0,0,1-.08-.15c0-.22,0-.43,0-.65ZM11.94,19c.19.09.37.19.54.29s0,.07,0,.11q0,.57.06,1.14h-.14c-.17-.51-.34-1-.5-1.53Zm-1.78-.14c.05.07.1.12.1.19,0,.23,0,.46.05.68a1.17,1.17,0,0,1-.15-.16v-.71Zm4.64,0c.09.26.18.52.28.78a.91.91,0,0,1,.4-.06.37.37,0,0,1,0-.18c0-.06.1-.08.15-.11a1.78,1.78,0,0,0-.88-.43Zm-3.54-.16a5.85,5.85,0,0,1,.56.26.15.15,0,0,1,.08.12c.15.45.3.89.44,1.34-.05,0-.11-.05-.14-.11l-.94-1.61Zm-6.38.51a1.18,1.18,0,0,0,.26.51.87.87,0,0,0,.24.15l.64.33L5,18.59a1,1,0,0,0-.08.56ZM5,18.5a1.1,1.1,0,0,1,.26.15l2.13,1.48c.15.1.3.2.44.31l-1.18,0a.71.71,0,0,1-.31-.13.49.49,0,0,1-.24-.16c-.3-.45-.61-.89-.92-1.33A1.83,1.83,0,0,1,5,18.5Zm0-.05s0,.05,0,.05,0-.06,0-.05Zm4.95-.11c0,.23-.06.47-.08.7l.21.25v-.66c0-.11-.08-.2-.13-.29Zm-5.53.33a1.7,1.7,0,0,0-.27.39A.56.56,0,0,0,4,19.4a.41.41,0,0,0,.16.23,1.62,1.62,0,0,0,.37.19.47.47,0,0,1-.11-.21s0-.08.07-.08a.32.32,0,0,1,.14,0l.47.14a1.1,1.1,0,0,1-.26-.53,1.07,1.07,0,0,1,.08-.61l-.13-.2a1.44,1.44,0,0,0-.46.31ZM8,18.58a.6.6,0,0,0,.19.47,2.93,2.93,0,0,0,1,.68L8.22,18.3a.41.41,0,0,0-.23.28Zm2.27-.34c.29.09.58.21.87.33a.15.15,0,0,1,.1.09l1,1.64a.75.75,0,0,0-.13.06.38.38,0,0,0-.1.12.64.64,0,0,0-.1-.13.29.29,0,0,0-.27,0,.44.44,0,0,0-.12.15.45.45,0,0,0-.1-.14.48.48,0,0,0-.17-.05c-.28-.43-.57-.86-.86-1.29a.43.43,0,0,1,0-.19c0-.2,0-.39,0-.58Zm-.09,0c0,.17,0,.34,0,.51s.06.12.09.17c0-.22,0-.43,0-.65l-.05,0Zm-5.33.13.28-.14L5,18.43l-.14-.1Zm5-.17H10v.28a.45.45,0,0,1-.12-.29Zm-.06,0s0,.05,0,0,0-.05,0,0Zm-.77,0c.23,0,.47,0,.69,0,0,.06.1.12.09.19,0,.22-.05.44-.07.66L9,18.12Zm-.45,0,.39,0,.76.94-.09.86c-.12-.05-.25-.08-.37-.14s-.07-.07-.1-.11c-.3-.47-.61-.93-.9-1.4a1.25,1.25,0,0,1,.31-.11ZM5.3,18.1l.82-.38a1,1,0,0,0,0,.46,1.49,1.49,0,0,0,.41.72,3.65,3.65,0,0,0,2,1l.13,0A.32.32,0,0,1,8.7,20l.33.43-1.09,0c-.09,0-.15-.07-.22-.11L5,18.46c.08-.13.13-.3.28-.36Zm4.87-.34c0,.12,0,.24,0,.37a.07.07,0,0,0,0,.06c0-.19,0-.37,0-.56a.5.5,0,0,0,0-.12c0,.08,0,.16,0,.25Zm-4-.05a.88.88,0,0,0,0,.64,1.85,1.85,0,0,0,.6.76,3.62,3.62,0,0,0,1.8.79c-.63-.8-1.25-1.61-1.87-2.41a5.42,5.42,0,0,0-.56.22Zm3.71.41H10c0-.27,0-.55,0-.83-.05.27-.07.55-.1.82Zm-3.1-.65,1.88,2.45a4.64,4.64,0,0,0,.65,0L9.2,19.8c-.07-.05-.15-.07-.23-.12a2.55,2.55,0,0,1-.83-.62.65.65,0,0,1-.2-.47.48.48,0,0,1,.26-.33l-.56-.86s-.07-.11-.12-.17a6.39,6.39,0,0,0-.74.24Zm5.66-.4c0,.73.08,1.46.11,2.18.33.19.67.39,1,.6a2,2,0,0,1-.42-.89,1.18,1.18,0,0,1,.18-.71,1.39,1.39,0,0,0,.21-.81,8.09,8.09,0,0,0-1.08-.37Zm-4.87.14c.23.34.45.69.68,1a1.32,1.32,0,0,1,.3-.1l.4,0-.78-1s0-.05-.06-.06a4.75,4.75,0,0,0-.54.14Zm2.61-.33c0,.43.05.88.08,1.31.31.1.6.22.89.34-.32-.55-.64-1.1-1-1.65Zm-2,.17.84,1a5.45,5.45,0,0,1,.7,0c-.25-.4-.51-.79-.77-1.19-.26,0-.52.1-.77.15Zm3.08-.2c.23.69.46,1.37.68,2,.2.11.4.21.6.33,0-.67-.07-1.34-.11-2a.86.86,0,0,0,0-.16,9.42,9.42,0,0,0-1.16-.21Zm-1.05-.05,1,1.77c.21.09.42.2.63.3l-.68-2a8.19,8.19,0,0,0-1,0ZM9,16.9l.74,1.15a.19.19,0,0,0,.11.08c.05-.44.1-.88.14-1.32a8.28,8.28,0,0,0-1,.09Zm1-.42h.12v.18a8.1,8.1,0,0,1,2.5.32,8.36,8.36,0,0,1,1.67.68v.09a8.5,8.5,0,0,0-4.17-1c0,1.19,0,2.38,0,3.57l-.1.12c0-1.23,0-2.45,0-3.68a10.1,10.1,0,0,0-3.34.68c-.45.17-.88.36-1.31.57a5.89,5.89,0,0,0-.66.34.46.46,0,0,1-.3.08,1.6,1.6,0,0,1,.34-.2,18.37,18.37,0,0,1,2.42-1A10.2,10.2,0,0,1,10,16.66v-.18Zm.17-.13c.14,0,.27-.11.41-.08s.43.19.66.2.25,0,.37,0a.71.71,0,0,1,.45.17.44.44,0,0,0,.24.11,2.54,2.54,0,0,1,.48,0,.89.89,0,0,1,.67.5L13,17.05a8.07,8.07,0,0,0-2.8-.42v-.16a.21.21,0,0,0-.19,0v.16a11.14,11.14,0,0,0-3.45.77l-.24.1a1,1,0,0,1,.38-.3c.16-.07.33-.08.48-.15a4.23,4.23,0,0,1,.47-.25,1.35,1.35,0,0,1,.4,0,.63.63,0,0,0,.38-.17.48.48,0,0,1,.36-.16.84.84,0,0,1,.27,0,.65.65,0,0,0,.39-.05,1.12,1.12,0,0,0,.24-.13.5.5,0,0,1,.24,0,1.67,1.67,0,0,0,.3.08Zm-.53-.1a.61.61,0,0,1,.23,0c.11,0,.2.09.32.08s.2-.08.31-.08a.65.65,0,0,1,.31,0,2,2,0,0,0,.41.15c.13,0,.25,0,.37,0a.77.77,0,0,1,.48.16.43.43,0,0,0,.21.11,1.71,1.71,0,0,0,.32,0,1.08,1.08,0,0,1,.74.31,1,1,0,0,1,.16.28c.29.12.55.24.83.38v.19c-.26-.13-.52-.26-.78-.36a1.36,1.36,0,0,1-.22.81,1.17,1.17,0,0,0-.18.67,1.89,1.89,0,0,0,.39.85.88.88,0,0,0,.21.22v-.14c.11.06.11.19.17.27l.22.2a.28.28,0,0,0,.17.09,3.16,3.16,0,0,0,.92-.14.76.76,0,0,0,.46-.34.3.3,0,0,0,0-.21l-.14-.05a1.74,1.74,0,0,1-.12-.14.89.89,0,0,0-.42.07c-.11-.29-.21-.59-.32-.89a1.57,1.57,0,0,1,.85.35.88.88,0,0,0,.15.12c.06,0,.15.06.2.12s0,.16.09.22a1.27,1.27,0,0,1,.26.58.75.75,0,0,1-.07.53,1.15,1.15,0,0,1-.55.47,3.79,3.79,0,0,1-.74.25c.11.11.23.22.34.34a.26.26,0,0,1-.21.14.47.47,0,0,1-.1-.1l-.28-.32-.26,0c.06.18.13.35.19.53a.26.26,0,0,1-.24,0,4.74,4.74,0,0,1-.15-.5l-.36.07c.11.15.23.31.33.46s0,.11,0,.12a.1.1,0,0,1-.13-.05c-.12-.17-.22-.34-.33-.51l-.43,0,.29.45s0,.1,0,.15-.07,0-.12,0-.07-.07-.1-.11l-.26-.5-.44,0,.21.43s.05.09,0,.14a.08.08,0,0,1-.15,0l-.24-.55-.47,0c.06.18.16.34.21.52s-.13.08-.2.05c-.07-.18-.12-.37-.17-.55a4.35,4.35,0,0,0-.51,0l.12.4a.5.5,0,0,1,0,.12c0,.07-.11,0-.17,0l-.12-.53h-.5a4.46,4.46,0,0,1,.07.51.17.17,0,0,1-.18,0c0-.17,0-.34-.05-.51H10a3,3,0,0,1,0,.43c0,.09-.18.11-.2,0a3.17,3.17,0,0,1,0-.44H9.37a2.58,2.58,0,0,1,0,.39.1.1,0,0,1-.19,0c0-.13,0-.27.06-.4H8.7c0,.1,0,.21-.08.31s-.17.11-.19,0,.08-.23.1-.33l-.47,0a2.68,2.68,0,0,1-.12.3A.1.1,0,0,1,7.77,22a1.09,1.09,0,0,1,.1-.25l-.45,0c0,.07,0,.16-.11.22a.12.12,0,0,1-.15,0c0-.07,0-.14.07-.21l-.44,0s0,.1-.09.13-.12,0-.16-.09,0,0,0-.07A23,23,0,0,1,4,21.2l-.4-.1A2.48,2.48,0,0,0,4.72,21,.41.41,0,0,0,5,20.72a.57.57,0,0,0-.15-.44.56.56,0,0,1-.14-.2.51.51,0,0,1,.06-.3c0-.07.1-.12.16-.09s.09.1.12.16S5,19.92,5,20a.28.28,0,0,0,.11.08l.7.3a.85.85,0,0,0,.42,0,2.14,2.14,0,0,0-.13-.19l-.19-.1-.62-.33a1.71,1.71,0,0,0-.38-.13,3.11,3.11,0,0,0-.41-.11c0,.13.11.22.17.33a2.14,2.14,0,0,1-.47-.2A.47.47,0,0,1,4,19a2.14,2.14,0,0,1,.41-.54l-.08,0a.8.8,0,0,1,.17-.15c.5-.24,1-.49,1.5-.71a.38.38,0,0,0,.21-.13,1,1,0,0,1,.46-.33c.13-.05.26-.07.39-.12a2.28,2.28,0,0,0,.3-.17.76.76,0,0,1,.44-.13.82.82,0,0,0,.31,0c.14,0,.23-.16.35-.23a.61.61,0,0,1,.4-.05,1.72,1.72,0,0,0,.24,0,.8.8,0,0,0,.26-.05C9.48,16.37,9.56,16.29,9.66,16.25Z"/><path class="cls-2" d="M6.78,20.58a.35.35,0,0,0,.3,0,.08.08,0,0,1,0,0,.88.88,0,0,0-.28,0Zm0-.06h.26c.07,0,.06.13,0,.14a1.13,1.13,0,0,1-.26,0C6.74,20.63,6.75,20.53,6.81,20.52Z"/><path class="cls-2" d="M7.23,20.58a.35.35,0,0,0,.3,0,.08.08,0,0,1,0,0,.88.88,0,0,0-.28,0Zm0-.06h.26c.06,0,.06.13,0,.14a1.13,1.13,0,0,1-.26,0C7.19,20.63,7.2,20.53,7.26,20.52Z"/><path class="cls-2" d="M7.73,20.62H8v-.06H7.73v.06Zm0-.09a1.22,1.22,0,0,1,.27,0,.07.07,0,0,1,0,.14.57.57,0,0,1-.26,0A.08.08,0,0,1,7.7,20.53Z"/><path class="cls-2" d="M8.17,20.62h.26v-.06H8.17v.06Zm0-.09a1.22,1.22,0,0,1,.27,0c.08,0,.1.13,0,.14a.61.61,0,0,1-.27,0A.07.07,0,0,1,8.15,20.53Z"/><path class="cls-2" d="M8.67,20.57l0,0a.71.71,0,0,0,.29,0,.06.06,0,0,1,0,0,1,1,0,0,0-.24,0Zm0,0a1.1,1.1,0,0,1,.18,0,.19.19,0,0,1,.16,0,.08.08,0,0,1-.05.1,1.22,1.22,0,0,1-.27,0A.08.08,0,0,1,8.63,20.53Z"/><path class="cls-2" d="M5.56,20.72c.08,0,.05-.09,0-.14a.25.25,0,0,0,0,.14Zm0,0c0-.07,0-.15,0-.19s.1.05.1.11a.13.13,0,0,1-.07.1Z"/><path class="cls-2" d="M12.56,20.64v.06h.25l0-.05Zm0,0a.76.76,0,0,1,.26,0,.07.07,0,0,1,0,.14.89.89,0,0,1-.28,0A.07.07,0,0,1,12.58,20.6Z"/><path class="cls-2" d="M13.05,20.65l0,0,0,0a.41.41,0,0,0,.27,0,.57.57,0,0,0-.29,0Zm0,0a.7.7,0,0,1,.25,0,.07.07,0,0,1,0,.11s-.06,0-.1,0h-.2C13,20.72,13,20.61,13.05,20.6Z"/><path class="cls-2" d="M13.48,20.67a.35.35,0,0,0,.3,0,.35.35,0,0,0-.3,0Zm0-.07a.7.7,0,0,1,.25,0c.08,0,.08.13,0,.14a1,1,0,0,1-.25,0C13.43,20.72,13.43,20.61,13.5,20.6Z"/><path class="cls-2" d="M10.19,16.35c.14,0,.27-.11.42-.09s.43.18.66.2.24-.05.37,0a.83.83,0,0,1,.45.17.37.37,0,0,0,.24.1,2.63,2.63,0,0,1,.48,0,.89.89,0,0,1,.67.5L13,17a8.06,8.06,0,0,0-2.8-.41v-.16a.21.21,0,0,0-.19,0v.16a10.74,10.74,0,0,0-3.45.77l-.24.09a1,1,0,0,1,.38-.29c.16-.07.32-.08.48-.16a4,4,0,0,1,.46-.24,1.17,1.17,0,0,1,.41,0,.58.58,0,0,0,.37-.17.64.64,0,0,1,.37-.15.84.84,0,0,1,.27,0,.76.76,0,0,0,.39,0c.08,0,.15-.1.24-.13a.39.39,0,0,1,.24,0A1.23,1.23,0,0,0,10.19,16.35Z"/><path class="cls-2" d="M9,16.9a8.28,8.28,0,0,1,1-.09c0,.44-.09.88-.14,1.32a.15.15,0,0,1-.11-.08Z"/><path class="cls-2" d="M10.19,16.8a8.19,8.19,0,0,1,1,0l.68,2-.63-.3Z"/><path class="cls-2" d="M11.24,16.85a7.5,7.5,0,0,1,1.15.21.44.44,0,0,1,0,.16c0,.67.07,1.34.1,2-.19-.12-.39-.22-.6-.33C11.69,18.22,11.46,17.54,11.24,16.85Z"/><path class="cls-2" d="M8.16,17.05c.25-.05.51-.11.77-.14.26.4.52.79.77,1.19a4.09,4.09,0,0,0-.7,0C8.72,17.74,8.43,17.4,8.16,17.05Z"/><path class="cls-2" d="M10.18,16.88c.32.55.65,1.1,1,1.66a6.81,6.81,0,0,0-.89-.34C10.23,17.76,10.2,17.32,10.18,16.88Z"/><path class="cls-2" d="M7.57,17.21a5.18,5.18,0,0,1,.53-.14l.07.06.77,1a2.71,2.71,0,0,0-.4,0,1.51,1.51,0,0,0-.3.1C8,17.89,7.8,17.55,7.57,17.21Z"/><path class="cls-2" d="M12.44,17.07a9.77,9.77,0,0,1,1.08.36,1.37,1.37,0,0,1-.21.81,1.2,1.2,0,0,0-.18.71,2,2,0,0,0,.42.89l-1-.59C12.52,18.53,12.48,17.81,12.44,17.07Z"/><path class="cls-2" d="M6.78,17.47c.24-.09.49-.18.74-.25a.57.57,0,0,1,.12.18l.56.86a.47.47,0,0,0-.26.32.69.69,0,0,0,.2.48,2.82,2.82,0,0,0,.83.62,1.67,1.67,0,0,1,.23.12,1.71,1.71,0,0,1,.11.14c-.22,0-.43,0-.65,0Z"/><path class="cls-2" d="M9.88,18.12c0-.27,0-.55.09-.81,0,.27,0,.55,0,.83Z"/><path class="cls-2" d="M6.17,17.71a5.48,5.48,0,0,1,.56-.23c.62.8,1.24,1.61,1.87,2.41a3.54,3.54,0,0,1-1.8-.79,1.76,1.76,0,0,1-.6-.75A.88.88,0,0,1,6.17,17.71Z"/><path class="cls-2" d="M10.17,17.76a2.26,2.26,0,0,1,0-.26.6.6,0,0,1,0,.12c0,.19,0,.38,0,.57a.09.09,0,0,1,0-.07A2.17,2.17,0,0,1,10.17,17.76Z"/><path class="cls-2" d="M4.84,18.33l.28-.14L5,18.43A.71.71,0,0,1,4.84,18.33Z"/><path class="cls-2" d="M4.33,18.67a1.44,1.44,0,0,1,.46-.31c0,.06.09.13.14.2a1.17,1.17,0,0,0-.09.61,1.22,1.22,0,0,0,.27.53l-.47-.14a.35.35,0,0,0-.14,0s-.08,0-.07.08a.58.58,0,0,0,.1.21,1.24,1.24,0,0,1-.36-.19A.41.41,0,0,1,4,19.4a.5.5,0,0,1,0-.34A1.7,1.7,0,0,1,4.33,18.67Z"/><path class="cls-2" d="M4.91,18.45s0,0,0,.05S4.91,18.49,4.91,18.45Z"/><path class="cls-2" d="M15.07,19.32l0,.16a.85.85,0,0,1,.35-.08.71.71,0,0,0-.38-.08Zm0-.23v.14a1.31,1.31,0,0,1,.44.07.82.82,0,0,0-.44-.21Zm-.12-.23a1.34,1.34,0,0,1,.57.32c-.11,0-.21-.1-.31-.13a1,1,0,0,0-.24,0,.88.88,0,0,0,0-.16Zm-.12-.06a1.74,1.74,0,0,1,.88.43.28.28,0,0,0-.2.29.93.93,0,0,0-.4.06C15,19.32,14.9,19.06,14.8,18.8Z"/><path class="cls-2" d="M15.67,19.3a.19.19,0,0,1,.2.05.22.22,0,0,1,0,.32.21.21,0,0,1-.3-.08A.22.22,0,0,1,15.67,19.3Z"/><path class="cls-2" d="M15.73,20.18a1,1,0,0,1-.52.32,3,3,0,0,1-.9.07,1,1,0,0,0,.12.17h.25a2.14,2.14,0,0,0,.79-.16.72.72,0,0,0,.38-.39,1,1,0,0,0,0-.35,1.44,1.44,0,0,1-.16.33Zm0-.43a.29.29,0,0,0,.2-.19,1.65,1.65,0,0,1,.28.62.78.78,0,0,1-.07.45,1,1,0,0,1-.39.38,3,3,0,0,1-.92.33l-.1-.1a3.49,3.49,0,0,0,.89-.26.82.82,0,0,0,.47-.57,1.11,1.11,0,0,0-.17-.66,4.22,4.22,0,0,1,0,.49.62.62,0,0,1-.21.44.93.93,0,0,1-.53.22c-.24,0-.5.05-.75.08l-.52-.5a4.76,4.76,0,0,0,1.19-.11.93.93,0,0,0,.57-.37A.25.25,0,0,0,15.77,19.75Z"/><path class="cls-2" d="M13.5,20.6c-.07,0-.07.12,0,.14a1,1,0,0,0,.25,0c.08,0,.08-.14,0-.14a.53.53,0,0,0-.25,0Zm-.45,0c-.07,0-.07.12,0,.14h.2s.08,0,.1,0a.07.07,0,0,0,0-.11.53.53,0,0,0-.25,0Zm-.47,0c-.07,0-.08.11,0,.14h.28a.09.09,0,0,0,0-.15.57.57,0,0,0-.26,0Zm-7.06.15.07,0a.13.13,0,0,0,.06-.1c0-.06,0-.13-.1-.11s0,.12,0,.19Zm3.11-.22s0,.11,0,.13a.61.61,0,0,0,.27,0,.07.07,0,0,0,.05-.1.19.19,0,0,0-.16,0,1.1,1.1,0,0,0-.18,0Zm-.48,0s0,.12,0,.13a.61.61,0,0,0,.27,0c.08,0,.06-.15,0-.14a.81.81,0,0,0-.27,0Zm-.45,0a.08.08,0,0,0,0,.13.57.57,0,0,0,.26,0c.08,0,.06-.15,0-.14a1.22,1.22,0,0,0-.27,0Zm-.44,0c-.06,0-.07.11,0,.14a.57.57,0,0,0,.26,0,.07.07,0,0,0,0-.14Zm-.45,0c-.07,0-.07.11,0,.14a.57.57,0,0,0,.26,0c.07,0,.08-.13,0-.14Zm-1,0a.75.75,0,0,0,.06.13.35.35,0,0,0,.28.1,2,2,0,0,1,.42,0v-.24l-.76,0Zm-1-.65s.05-.09.1-.08.06.06.08.09a.75.75,0,0,0-.07.12c0,.07.07.11.13.14l.76.33a.63.63,0,0,0,.24,0l3,0a.33.33,0,0,0,.06.19.25.25,0,0,0,.32.07.24.24,0,0,0,.11-.16.45.45,0,0,0,.1.14.25.25,0,0,0,.3,0,.38.38,0,0,0,.09-.13.35.35,0,0,0,.11.13.23.23,0,0,0,.26,0,.25.25,0,0,0,.11-.14s0,.08.08.11a.24.24,0,0,0,.29,0,.32.32,0,0,0,.12-.14.38.38,0,0,0,.09.12.23.23,0,0,0,.28,0,.49.49,0,0,0,.11-.14.29.29,0,0,0,.08.13.26.26,0,0,0,.3,0,.32.32,0,0,0,.1-.13.21.21,0,0,0,.12.14.24.24,0,0,0,.29,0c.05,0,.06-.11.09-.18.28,0,.58,0,.87,0a.16.16,0,0,1,0-.09h.43s.06,0,.09.06.27.31.41.47a6.48,6.48,0,0,1-.76.06.08.08,0,0,0,0-.1.2.2,0,0,0-.24,0l.07.08a2.83,2.83,0,0,1-.41,0l0-.08a.17.17,0,0,0-.27,0s0,.06.07.08a2.82,2.82,0,0,1-.41,0s.06-.06,0-.09a.17.17,0,0,0-.26,0c0,.05.06.07.1.09-.15,0-.3,0-.45,0a.47.47,0,0,0,.06-.09.17.17,0,0,0-.27,0s.06.07.1.09h-.48a.23.23,0,0,1,.07-.07.15.15,0,0,0-.18-.08s-.11,0-.09.09l0,.06a2,2,0,0,1-.42,0s.07-.06.06-.11a.19.19,0,0,0-.26,0s0,.07.07.1a3.38,3.38,0,0,1-.45,0s.08-.05.06-.11a.18.18,0,0,0-.21,0,.08.08,0,0,0,0,.07l.07.06a3.81,3.81,0,0,1-.48,0l.09-.07c0-.06-.06-.09-.11-.1s-.15,0-.15.09l.06.07H8.84s.09,0,.08-.09a.16.16,0,0,0-.26,0,.22.22,0,0,1,0,.08,2,2,0,0,1-.35,0s.06-.08,0-.11a.2.2,0,0,0-.26,0s0,0,0,.06l-.38,0,0,0c-.06-.12-.28-.12-.28,0L7.2,21c0-.1-.11-.13-.19-.1s-.07.05-.1.07l-.71-.08a2.32,2.32,0,0,0-.87.08,1.74,1.74,0,0,0-.33.18c.58.1,1.16.19,1.75.26l-.17.25A22.11,22.11,0,0,1,4,21.2a1.77,1.77,0,0,0,.76-.14A.44.44,0,0,0,5,20.72a.56.56,0,0,0-.16-.42,1.92,1.92,0,0,1-.13-.17A.69.69,0,0,1,4.81,19.84Z"/><path class="cls-2" d="M9.28,19.82l.29.12H9.36A.62.62,0,0,1,9.28,19.82Z"/><path class="cls-2" d="M13.88,20.11a.23.23,0,0,1-.07-.19A.62.62,0,0,1,13.88,20.11Z"/><path class="cls-2" d="M13.53,20.11a.61.61,0,0,1,.16.12l1.54,1.51c-.05,0-.11.1-.17.1s-.11-.12-.16-.17c-.39-.45-.78-.89-1.18-1.33A2.33,2.33,0,0,0,13.53,20.11Z"/><path class="cls-2" d="M13.86,20.13a.75.75,0,0,1,.15.31H14A1.14,1.14,0,0,1,13.86,20.13Z"/><path class="cls-2" d="M9.24,20.53s-.1.06-.07.11a.14.14,0,0,0,.19,0,.08.08,0,0,0,0-.12.2.2,0,0,0-.15,0Zm0-.17a.21.21,0,0,1,.25.13.21.21,0,0,1-.18.26.19.19,0,0,1-.21-.19A.18.18,0,0,1,9.24,20.36Z"/><path class="cls-2" d="M9.72,20.54a.08.08,0,0,0,0,.15c.08,0,.21,0,.21-.09a.15.15,0,0,0-.18-.06Zm0-.18a.21.21,0,0,1,.26.17.2.2,0,0,1-.19.22.19.19,0,0,1-.2-.14A.2.2,0,0,1,9.72,20.36Z"/><path class="cls-2" d="M10.19,20.54a.09.09,0,0,0-.06.1.14.14,0,0,0,.25,0,.14.14,0,0,0-.19-.08Zm0-.18a.19.19,0,0,1,.23.08.2.2,0,0,1,0,.26.2.2,0,1,1-.19-.34Z"/><path class="cls-2" d="M10.59,20.61s.07.09.12.09.14,0,.14-.09-.08-.08-.14-.08-.07,0-.12.08Zm.08-.24a.19.19,0,0,1,.26.12.21.21,0,0,1-.17.26.21.21,0,0,1-.22-.17A.2.2,0,0,1,10.67,20.37Z"/><path class="cls-2" d="M11.17,20.53s-.1.06-.07.11a.14.14,0,0,0,.24,0c0-.08-.11-.1-.17-.09Zm0-.17a.19.19,0,0,1,.24.17.19.19,0,0,1-.2.22.2.2,0,0,1-.19-.19A.18.18,0,0,1,11.18,20.36Z"/><path class="cls-2" d="M11.65,20.54a.08.08,0,0,0,0,.15c.07,0,.19,0,.21-.07a.13.13,0,0,0-.18-.08Zm0-.18a.21.21,0,0,1,.23.08.2.2,0,1,1-.23-.08Z"/><path class="cls-2" d="M12.13,20.54l-.07.05c0,.15.27.15.24,0a.14.14,0,0,0-.17-.05Zm0-.18a.2.2,0,0,1,.26.17.21.21,0,0,1-.19.22.21.21,0,0,1-.21-.17A.19.19,0,0,1,12.13,20.36Z"/><path class="cls-2" d="M5.56,20.72a.32.32,0,0,1,0-.14C5.61,20.63,5.64,20.71,5.56,20.72Z"/><path class="cls-2" d="M7.09,21a.28.28,0,0,1,0,.12c-.12.24-.24.48-.37.71a.21.21,0,0,1-.12-.07c.1-.16.22-.33.34-.49A3.15,3.15,0,0,1,7.09,21Z"/><path class="cls-2" d="M7.59,21.09A.14.14,0,0,1,7.67,21c-.11.32-.25.63-.38.94H7.18s0-.07,0-.1Z"/><path class="cls-2" d="M8.13,21.26c0-.08.06-.16.14-.21s-.07.21-.1.31S8,21.79,8,22a.17.17,0,0,1-.06.11s-.09,0-.1,0,0-.07,0-.11Z"/><path class="cls-2" d="M13.37,21a.58.58,0,0,1,.18.2l.59.81s0,.06,0,.09-.11,0-.13,0c-.19-.31-.39-.62-.59-.92A.83.83,0,0,1,13.37,21Z"/><path class="cls-2" d="M12.8,21.07a.2.2,0,0,1,.1.08l.56.9c0,.07.11.14.1.24l-.11,0a.43.43,0,0,1-.09-.13C13.17,21.79,13,21.43,12.8,21.07Z"/><path class="cls-2" d="M8.73,21.31a.54.54,0,0,1,.09-.22c0,.14-.05.27-.08.41l-.15.65a.08.08,0,0,1-.12.05s0-.07,0-.1C8.57,21.83,8.65,21.57,8.73,21.31Z"/><path class="cls-2" d="M9.34,21.22a.56.56,0,0,1,0-.12c0,.13,0,.25,0,.38s0,.51-.06.76a.07.07,0,0,1-.11.05s0-.08,0-.12C9.23,21.86,9.29,21.54,9.34,21.22Z"/><path class="cls-2" d="M10.5,21.13a.13.13,0,0,1,.06.09l.18,1.15a.17.17,0,0,1-.12,0s0-.08,0-.12c0-.28-.06-.56-.08-.84A2.64,2.64,0,0,1,10.5,21.13Z"/><path class="cls-2" d="M11.08,21.13a.2.2,0,0,1,.06.11l.33,1.13s-.08,0-.11,0,0-.06,0-.09c-.08-.33-.15-.66-.23-1C11.09,21.22,11.09,21.17,11.08,21.13Z"/><path class="cls-2" d="M11.68,21.13a.3.3,0,0,1,.09.13c.14.36.31.72.45,1.08a.26.26,0,0,1-.15,0c-.11-.32-.2-.64-.31-1A2.58,2.58,0,0,1,11.68,21.13Z"/><path class="cls-2" d="M12.25,21.1a.84.84,0,0,1,.14.24c.14.25.27.5.4.76,0,.07.1.14.07.23h-.08c-.15-.33-.29-.66-.43-1A.93.93,0,0,1,12.25,21.1Z"/><path class="cls-2" d="M9.93,21.22a.2.2,0,0,1,0-.08c0,.37,0,.73,0,1.09,0,0,0,.08,0,.11s-.12,0-.12,0c0-.21,0-.42,0-.62S9.92,21.33,9.93,21.22Z"/><path class="cls-2" d="M13.71,21.41c.26-.05.54-.07.81-.14a1.34,1.34,0,0,0,.11.14l-.81.16Z"/><path class="cls-2" d="M6.92,21.41l.45.06a1.83,1.83,0,0,0-.13.24l-.44,0A2,2,0,0,0,6.92,21.41Z"/><path class="cls-2" d="M13.14,21.48c.14,0,.29,0,.43-.06a.86.86,0,0,0,.1.16l-.43.06C13.21,21.59,13.17,21.54,13.14,21.48Z"/><path class="cls-2" d="M7.52,21.48l.47.05a1.51,1.51,0,0,0-.11.22l-.46,0A2.44,2.44,0,0,0,7.52,21.48Z"/><path class="cls-2" d="M12.53,21.55l.45,0,.09.16-.44,0A1,1,0,0,0,12.53,21.55Z"/><path class="cls-2" d="M14.24,21.53l.14,0c.07.16.13.33.19.51a.37.37,0,0,1-.18,0C14.33,21.86,14.29,21.7,14.24,21.53Z"/><path class="cls-2" d="M8.14,21.53l.47,0a1.42,1.42,0,0,1-.07.22l-.48,0A1.35,1.35,0,0,0,8.14,21.53Z"/><path class="cls-2" d="M11.94,21.6l.47,0c0,.06.05.11.07.17l-.47,0C12,21.71,12,21.65,11.94,21.6Z"/><path class="cls-2" d="M8.75,21.58l.49,0a2.07,2.07,0,0,1,0,.22l-.5,0A1.42,1.42,0,0,0,8.75,21.58Z"/><path class="cls-2" d="M9.38,21.62h.5a1.48,1.48,0,0,1,0,.21H9.36A1.23,1.23,0,0,0,9.38,21.62Z"/><path class="cls-2" d="M11.29,21.62l.5,0a1.21,1.21,0,0,0,.05.18l-.5,0C11.32,21.74,11.31,21.68,11.29,21.62Z"/><path class="cls-2" d="M10,21.63h.49a1.21,1.21,0,0,1,0,.19H10A1.48,1.48,0,0,0,10,21.63Z"/><path class="cls-2" d="M10.66,21.64h.5c0,.07,0,.12,0,.18l-.5,0Z"/><path class="cls-2" d="M27.06,6.7a.13.13,0,0,0-.23,0l-.71,1.75a.13.13,0,0,0,.12.17h1.42a.12.12,0,0,0,.11-.17L27.06,6.7Zm1,2.48A.12.12,0,0,0,28,9.1h-2a.13.13,0,0,0-.12.08l-.31.75a.13.13,0,0,1-.12.08H25.1A.13.13,0,0,1,25,9.84l1.84-4.32a.12.12,0,0,1,.11-.07h0a.12.12,0,0,1,.11.07l1.84,4.32a.13.13,0,0,1-.12.17h-.29a.12.12,0,0,1-.11-.08Z"/><path class="cls-2" d="M30.93,6a.13.13,0,0,0-.12.12,13.45,13.45,0,0,1-.16,2.16,3.49,3.49,0,0,1-.31,1,.16.16,0,0,0,.12.22h1.93a.13.13,0,0,0,.13-.13V6.12A.13.13,0,0,0,32.39,6Zm2.54,3.54a.12.12,0,0,1,.12.12v1.19a.12.12,0,0,1-.12.12h-.28a.13.13,0,0,1-.13-.12v-.71a.13.13,0,0,0-.12-.13h-3a.13.13,0,0,0-.13.13v.71a.12.12,0,0,1-.12.12H29.4a.13.13,0,0,1-.13-.12V9.66a.12.12,0,0,1,.13-.12h.17a.18.18,0,0,0,.09,0,2.21,2.21,0,0,0,.49-1.11,12.18,12.18,0,0,0,.17-2.3V5.65a.12.12,0,0,1,.12-.13h2.47a.13.13,0,0,1,.13.13V9.41a.12.12,0,0,0,.12.13Z"/><path class="cls-2" d="M38.42,5.45a.12.12,0,0,1,.12.12V9.89a.12.12,0,0,1-.13.12h-.28A.12.12,0,0,1,38,9.89V7.18a.13.13,0,0,0-.23-.08L36.61,8.69a.12.12,0,0,1-.1.05h-.06a.12.12,0,0,1-.1-.05l-1.18-1.6a.13.13,0,0,0-.23.07V9.89a.12.12,0,0,1-.12.12h-.28a.12.12,0,0,1-.13-.12V5.57a.13.13,0,0,1,.23-.07l1.73,2.4a.12.12,0,0,0,.2,0l1.75-2.4A.12.12,0,0,1,38.42,5.45Z"/><path class="cls-2" d="M43.3,5.45a.12.12,0,0,1,.12.12V9.89a.12.12,0,0,1-.12.12H43a.12.12,0,0,1-.13-.12v-3a.12.12,0,0,0-.22-.08L40,10a.14.14,0,0,1-.1.05h0a.12.12,0,0,1-.12-.13V5.65a.12.12,0,0,1,.12-.13h.28a.13.13,0,0,1,.13.13v3a.13.13,0,0,0,.22.08L43.2,5.49a.13.13,0,0,1,.09,0Z"/><path class="cls-2" d="M44.66,5.65a.12.12,0,0,1,.12-.13h.28a.13.13,0,0,1,.13.13v1.6a.12.12,0,0,0,.12.12h2.27a.12.12,0,0,0,.13-.12V5.65a.12.12,0,0,1,.12-.13h.28a.13.13,0,0,1,.13.13V9.89a.12.12,0,0,1-.13.12h-.28a.12.12,0,0,1-.12-.12V8a.13.13,0,0,0-.13-.12H45.31a.13.13,0,0,0-.12.12V9.89a.12.12,0,0,1-.13.12h-.28a.12.12,0,0,1-.12-.12Z"/><path class="cls-2" d="M53,5.45a.12.12,0,0,1,.13.12V9.89A.12.12,0,0,1,53,10h-.28a.12.12,0,0,1-.12-.12v-3a.12.12,0,0,0-.22-.08L49.7,10a.12.12,0,0,1-.1.05h0a.13.13,0,0,1-.13-.13V5.65a.13.13,0,0,1,.13-.13h.28a.12.12,0,0,1,.12.13v3a.13.13,0,0,0,.23.08l2.66-3.25a.15.15,0,0,1,.1,0Z"/><path class="cls-2" d="M56.39,10.09a2.38,2.38,0,0,1-1.17-.31,2.29,2.29,0,0,1-1.16-2,2.26,2.26,0,0,1,.31-1.18,2.3,2.3,0,0,1,2-1.14,2.31,2.31,0,0,1,1.09.26,2.11,2.11,0,0,1,.71.61.12.12,0,0,1,0,.17l-.2.15a.13.13,0,0,1-.19,0,1.77,1.77,0,0,0-.55-.47,1.63,1.63,0,0,0-.83-.21,1.77,1.77,0,0,0-.91.24,1.79,1.79,0,0,0-.65.66,1.89,1.89,0,0,0-.23.93,2,2,0,0,0,.23.94,1.84,1.84,0,0,0,.65.65,1.77,1.77,0,0,0,.91.24,1.63,1.63,0,0,0,.83-.21,1.91,1.91,0,0,0,.55-.47.14.14,0,0,1,.19,0l.2.16a.11.11,0,0,1,0,.16,2,2,0,0,1-.71.62A2.31,2.31,0,0,1,56.39,10.09Z"/><path class="cls-2" d="M60.3,6.12A.12.12,0,0,0,60.18,6H58.85a.12.12,0,0,1-.12-.13V5.65a.12.12,0,0,1,.12-.13h3.44a.13.13,0,0,1,.13.13v.22a.13.13,0,0,1-.13.13H61a.13.13,0,0,0-.13.12V9.89a.12.12,0,0,1-.12.12h-.28a.12.12,0,0,1-.13-.12Z"/><path class="cls-2" d="M64.73,7.66a.91.91,0,0,0,.66-.23.78.78,0,0,0,.24-.6.78.78,0,0,0-.24-.6A.91.91,0,0,0,64.73,6h-.91a.12.12,0,0,0-.12.12V7.53a.12.12,0,0,0,.12.13Zm-1.56-2a.12.12,0,0,1,.12-.13h1.45a1.64,1.64,0,0,1,.76.17,1.2,1.2,0,0,1,.5.47,1.21,1.21,0,0,1,.18.66A1.28,1.28,0,0,1,66,7.5a1.2,1.2,0,0,1-.5.47,1.64,1.64,0,0,1-.76.16h-.92a.12.12,0,0,0-.12.13V9.89a.12.12,0,0,1-.13.12h-.28a.12.12,0,0,1-.12-.12Z"/><path class="cls-2" d="M68.27,6.7a.13.13,0,0,0-.23,0l-.72,1.75a.13.13,0,0,0,.12.17h1.42A.13.13,0,0,0,69,8.45L68.27,6.7Zm1,2.48a.11.11,0,0,0-.11-.08h-2a.12.12,0,0,0-.11.08l-.32.75a.12.12,0,0,1-.11.08H66.3a.12.12,0,0,1-.11-.17L68,5.52a.14.14,0,0,1,.12-.07h0a.14.14,0,0,1,.12.07l1.83,4.32A.12.12,0,0,1,70,10h-.29a.13.13,0,0,1-.12-.08Z"/><path class="cls-2" d="M74.56,10.14a.13.13,0,0,0-.13-.13H71.15A.12.12,0,0,1,71,9.89V5.65a.12.12,0,0,1,.12-.13h.28a.13.13,0,0,1,.13.13V9.41a.12.12,0,0,0,.12.13h2.2A.13.13,0,0,0,74,9.41V5.65a.12.12,0,0,1,.12-.13h.28a.13.13,0,0,1,.13.13V9.41a.12.12,0,0,0,.12.13H75a.12.12,0,0,1,.13.12v1.19A.13.13,0,0,1,75,11h-.28a.12.12,0,0,1-.12-.12Z"/><path class="cls-2" d="M79.43,5.45a.12.12,0,0,1,.12.12V9.89a.12.12,0,0,1-.12.12h-.28A.12.12,0,0,1,79,9.89v-3a.12.12,0,0,0-.22-.08L76.14,10a.14.14,0,0,1-.1.05h0a.12.12,0,0,1-.12-.13V5.65A.12.12,0,0,1,76,5.52h.28a.13.13,0,0,1,.13.13v3a.13.13,0,0,0,.22.08l2.67-3.25a.13.13,0,0,1,.09,0Z"/><path class="cls-2" d="M83.23,6.12A.13.13,0,0,0,83.11,6h-.85a1.08,1.08,0,0,0-.72.24.87.87,0,0,0-.26.65.86.86,0,0,0,.26.65,1.08,1.08,0,0,0,.72.24h.85a.12.12,0,0,0,.12-.12V6.12Zm.41-.6a.13.13,0,0,1,.12.13V9.89a.12.12,0,0,1-.12.12h-.28a.12.12,0,0,1-.13-.12V8.39a.13.13,0,0,0-.12-.13H82.4a.12.12,0,0,0-.1.06L81.12,10a.12.12,0,0,1-.1,0h-.3a.13.13,0,0,1-.1-.2l1.06-1.47a.14.14,0,0,0-.07-.2,1.54,1.54,0,0,1-.6-.43,1.26,1.26,0,0,1-.28-.82,1.3,1.3,0,0,1,.73-1.2,1.85,1.85,0,0,1,.8-.17Z"/><path class="cls-2" d="M25.32,14.2a.12.12,0,0,1,.12-.12h2.41a.12.12,0,0,1,.12.12v.23a.12.12,0,0,1-.12.12H26a.12.12,0,0,0-.12.13v3.76a.12.12,0,0,1-.13.12h-.28a.12.12,0,0,1-.12-.12Z"/><path class="cls-2" d="M30.66,18.15a1.79,1.79,0,0,0,.91-.24,1.76,1.76,0,0,0,.64-.66,2,2,0,0,0,.23-.94,1.87,1.87,0,0,0-.23-.92,1.76,1.76,0,0,0-.64-.66,1.79,1.79,0,0,0-.91-.24,1.77,1.77,0,0,0-.91.24,1.74,1.74,0,0,0-.64.65,2,2,0,0,0,0,1.87,1.73,1.73,0,0,0,1.55.9Zm0,.49a2.29,2.29,0,0,1-1.18-.31,2.23,2.23,0,0,1-.84-.83,2.4,2.4,0,0,1,0-2.36,2.23,2.23,0,0,1,.84-.83A2.29,2.29,0,0,1,30.66,14a2.22,2.22,0,0,1,1.16.31,2.19,2.19,0,0,1,.85.83,2.34,2.34,0,0,1,0,2.36,2.19,2.19,0,0,1-.85.83A2.22,2.22,0,0,1,30.66,18.64Z"/><path class="cls-2" d="M35.5,16.21a.92.92,0,0,0,.66-.22.88.88,0,0,0,0-1.21.93.93,0,0,0-.66-.23h-.91a.13.13,0,0,0-.13.13v1.41a.13.13,0,0,0,.13.12Zm-1.57-2a.12.12,0,0,1,.13-.12h1.45a1.55,1.55,0,0,1,.76.17,1.17,1.17,0,0,1,.5.46,1.23,1.23,0,0,1,.18.66,1.28,1.28,0,0,1-.18.68,1.26,1.26,0,0,1-.5.47,1.67,1.67,0,0,1-.76.17h-.92a.12.12,0,0,0-.13.12v1.63a.12.12,0,0,1-.12.12h-.28a.12.12,0,0,1-.13-.12Z"/><path class="cls-2" d="M39.87,18.15a1.79,1.79,0,0,0,.91-.24,1.76,1.76,0,0,0,.64-.66,2,2,0,0,0,.23-.94,1.87,1.87,0,0,0-.23-.92,1.76,1.76,0,0,0-.64-.66,1.79,1.79,0,0,0-.91-.24,1.77,1.77,0,0,0-.91.24,1.74,1.74,0,0,0-.64.65,2,2,0,0,0,0,1.87,1.73,1.73,0,0,0,1.55.9Zm0,.49a2.29,2.29,0,0,1-1.18-.31,2.23,2.23,0,0,1-.84-.83,2.4,2.4,0,0,1,0-2.36,2.23,2.23,0,0,1,.84-.83,2.38,2.38,0,0,1,2.35,0,2.23,2.23,0,0,1,.84.83,2.34,2.34,0,0,1,0,2.36,2.23,2.23,0,0,1-.84.83A2.28,2.28,0,0,1,39.87,18.64Z"/><path class="cls-2" d="M44.12,14.55a.12.12,0,0,0-.12.13,13.45,13.45,0,0,1-.16,2.16,3.51,3.51,0,0,1-.31,1,.15.15,0,0,0,.12.22h1.93A.12.12,0,0,0,45.7,18V14.68a.12.12,0,0,0-.12-.13Zm2.53,3.54a.12.12,0,0,1,.13.12V19.4a.12.12,0,0,1-.13.12h-.28a.12.12,0,0,1-.12-.12v-.71a.13.13,0,0,0-.13-.13h-3a.13.13,0,0,0-.13.13v.71a.12.12,0,0,1-.12.12h-.28a.12.12,0,0,1-.13-.12V18.21a.12.12,0,0,1,.13-.12h.17a.09.09,0,0,0,.08,0,2.13,2.13,0,0,0,.5-1.1,12.38,12.38,0,0,0,.17-2.31V14.2a.12.12,0,0,1,.13-.12h2.47a.12.12,0,0,1,.13.12V18a.12.12,0,0,0,.12.13Z"/><path class="cls-2" d="M49.35,15.25a.13.13,0,0,0-.23,0L48.4,17a.13.13,0,0,0,.12.18h1.42a.13.13,0,0,0,.12-.18l-.71-1.75Zm1,2.48a.13.13,0,0,0-.12-.08h-2a.12.12,0,0,0-.11.08l-.32.76a.12.12,0,0,1-.11.07h-.29a.12.12,0,0,1-.11-.17l1.83-4.31a.13.13,0,0,1,.12-.08h0a.13.13,0,0,1,.12.08l1.83,4.31a.12.12,0,0,1-.11.17H50.8a.14.14,0,0,1-.12-.07Z"/><path class="cls-2" d="M55.42,15.25a.13.13,0,0,0-.23,0L54.48,17a.13.13,0,0,0,.12.18H56a.13.13,0,0,0,.12-.18l-.72-1.75Zm1,2.48a.12.12,0,0,0-.11-.08h-2a.13.13,0,0,0-.12.08l-.31.76a.14.14,0,0,1-.12.07h-.28a.13.13,0,0,1-.12-.17l1.84-4.31A.13.13,0,0,1,55.3,14h0a.12.12,0,0,1,.11.08l1.84,4.31a.12.12,0,0,1-.11.17h-.3a.12.12,0,0,1-.11-.07Z"/><path class="cls-2" d="M58.19,14.2a.12.12,0,0,1,.12-.12h.28a.12.12,0,0,1,.13.12v1.6a.12.12,0,0,0,.12.13h2.27a.12.12,0,0,0,.12-.13V14.2a.12.12,0,0,1,.13-.12h.28a.12.12,0,0,1,.12.12v4.24a.12.12,0,0,1-.12.12h-.28a.12.12,0,0,1-.13-.12V16.53a.12.12,0,0,0-.12-.13H58.84a.12.12,0,0,0-.12.13v1.91a.12.12,0,0,1-.13.12h-.28a.12.12,0,0,1-.12-.12Z"/><path class="cls-2" d="M64.75,15.25a.13.13,0,0,0-.23,0L63.8,17a.13.13,0,0,0,.12.18h1.42a.13.13,0,0,0,.12-.18l-.71-1.75Zm1,2.48a.13.13,0,0,0-.12-.08h-2a.12.12,0,0,0-.11.08l-.32.76a.12.12,0,0,1-.11.07h-.29a.12.12,0,0,1-.11-.17l1.83-4.31a.13.13,0,0,1,.12-.08h0a.13.13,0,0,1,.12.08l1.83,4.31a.12.12,0,0,1-.11.17H66.2a.14.14,0,0,1-.12-.07Z"/><path class="cls-2" d="M67.51,14.2a.12.12,0,0,1,.12-.12h3.26a.12.12,0,0,1,.13.12v4.24a.12.12,0,0,1-.13.12h-.28a.12.12,0,0,1-.12-.12V14.68a.13.13,0,0,0-.13-.13h-2.2a.13.13,0,0,0-.12.13v3.76a.12.12,0,0,1-.13.12h-.28a.12.12,0,0,1-.12-.12Z"/><path class="cls-2" d="M74,15.25a.13.13,0,0,0-.23,0L73.06,17a.13.13,0,0,0,.12.18H74.6a.13.13,0,0,0,.12-.18L74,15.25Zm1,2.48a.12.12,0,0,0-.11-.08h-2a.13.13,0,0,0-.12.08l-.31.76a.14.14,0,0,1-.12.07H72a.13.13,0,0,1-.12-.17l1.84-4.31a.13.13,0,0,1,.12-.08h0a.12.12,0,0,1,.11.08l1.84,4.31a.12.12,0,0,1-.11.17h-.3a.12.12,0,0,1-.11-.07Z"/></g></g></svg>