<svg xmlns="http://www.w3.org/2000/svg" viewBox="0 0 91.35 33.21"><defs><style>.cls-1{fill:#fff;fill-rule:evenodd;}</style></defs><g id="Слой_2" data-name="Слой 2"><g id="Слой_1-2" data-name="Слой 1"><path class="cls-1" d="M4.89,31.53H3.33V26.7l-.3,0-.49,0a3.58,3.58,0,0,1-1-.15,2,2,0,0,1-.84-.47,1.93,1.93,0,0,1-.5-.83A3.42,3.42,0,0,1,0,24.24V20.65H1.56v3.41a2.37,2.37,0,0,0,.06.52.86.86,0,0,0,.23.42,1.14,1.14,0,0,0,.87.29H3l.19,0,.17,0V20.65H4.89V31.53Zm1.47,0V20.65H11v1.46H7.92v3.2h2.69v1.47H7.92V30H11v1.56ZM17,28.43v.67a2.38,2.38,0,0,1-.19,1,2.63,2.63,0,0,1-1.32,1.36,2.25,2.25,0,0,1-1,.2,3.6,3.6,0,0,1-.9-.12,2,2,0,0,1-.82-.43,2.28,2.28,0,0,1-.61-.78,2.79,2.79,0,0,1-.23-1.23v-6a2.68,2.68,0,0,1,.18-1,2.26,2.26,0,0,1,.52-.8,2.31,2.31,0,0,1,.8-.52,2.66,2.66,0,0,1,1-.19,2.35,2.35,0,0,1,1.79.71,2.61,2.61,0,0,1,.53.84,2.75,2.75,0,0,1,.19,1v.62H15.41v-.52a1.3,1.3,0,0,0-.26-.8.85.85,0,0,0-.7-.34.78.78,0,0,0-.77.36,1.91,1.91,0,0,0-.2.91V29a1.41,1.41,0,0,0,.21.79.81.81,0,0,0,.74.32,1,1,0,0,0,.33,0,.87.87,0,0,0,.33-.17,1.07,1.07,0,0,0,.23-.34,1.38,1.38,0,0,0,.09-.54v-.53Zm2.14,3.1V22.11h-1.8V20.65h5.16v1.46h-1.8v9.42Zm4.05,0V20.65h1.56v4.66h1.93V20.65h1.56V31.53H26.65V26.69H24.72v4.84Zm6.52-10.88h1.55v4.46h.59a3.74,3.74,0,0,1,1.35.22,2.37,2.37,0,0,1,.88.62,2.06,2.06,0,0,1,.44.92A7,7,0,0,1,34.6,28v.62a3.14,3.14,0,0,1-.7,2.2,2.85,2.85,0,0,1-2.22.76h-2V20.65Zm1.55,5.84V30h.55a1.71,1.71,0,0,0,.75-.13,1,1,0,0,0,.4-.39,1.41,1.41,0,0,0,.17-.58c0-.22,0-.47,0-.73a4.73,4.73,0,0,0-.05-.71,1.29,1.29,0,0,0-.18-.5,1,1,0,0,0-.41-.33,1.84,1.84,0,0,0-.69-.11Zm4.16,5V20.65H37V31.53Zm6.67,0V24.47h0L40,31.53H38.42V20.65H40v7.08h0l2.05-7.08h1.56V31.53ZM40.19,18.46c0,.06,0,.14,0,.22a.64.64,0,0,0,.1.26.67.67,0,0,0,.25.22,1.06,1.06,0,0,0,.9,0,.67.67,0,0,0,.25-.22.62.62,0,0,0,.09-.26c0-.08,0-.16,0-.22h1.3a2,2,0,0,1-.6,1.35,3,3,0,0,1-3,0,2.08,2.08,0,0,1-.61-1.35Zm7.74,13.07V20.65h4.34v1.46H49.49v9.42Zm4.83-8.31A2.87,2.87,0,0,1,53,22.05a2.6,2.6,0,0,1,.61-.84,2.81,2.81,0,0,1,.84-.49,2.77,2.77,0,0,1,.94-.16,2.86,2.86,0,0,1,.94.16,2.94,2.94,0,0,1,.84.49,2.57,2.57,0,0,1,.6.84A2.87,2.87,0,0,1,58,23.22V29a2.82,2.82,0,0,1-.23,1.18,2.26,2.26,0,0,1-.6.81,2.6,2.6,0,0,1-.84.51,2.86,2.86,0,0,1-.94.16,2.77,2.77,0,0,1-.94-.16A2.49,2.49,0,0,1,53.6,31a2.28,2.28,0,0,1-.61-.81A2.82,2.82,0,0,1,52.76,29V23.22ZM54.32,29a1,1,0,0,0,.31.84,1.2,1.2,0,0,0,1.49,0,1,1,0,0,0,.31-.84V23.22a1,1,0,0,0-.31-.84,1.16,1.16,0,0,0-1.49,0,1,1,0,0,0-.31.84V29Zm5,2.57V20.65H61.7a3.33,3.33,0,0,1,1.14.17,2.17,2.17,0,0,1,.88.59,2.29,2.29,0,0,1,.55,1A5.84,5.84,0,0,1,64.43,24a7.16,7.16,0,0,1-.09,1.24,2.34,2.34,0,0,1-.36.95,2.18,2.18,0,0,1-.85.83,2.89,2.89,0,0,1-1.41.3h-.79v4.25Zm1.56-9.42v3.7h.74a1.66,1.66,0,0,0,.74-.13.89.89,0,0,0,.38-.39,1.48,1.48,0,0,0,.15-.56c0-.23,0-.48,0-.75s0-.5,0-.73a1.56,1.56,0,0,0-.13-.6,1,1,0,0,0-.37-.4,1.47,1.47,0,0,0-.7-.14Zm4.57,1.11a2.72,2.72,0,0,1,.23-1.17,2.46,2.46,0,0,1,.61-.84,2.77,2.77,0,0,1,2.71-.49,3.14,3.14,0,0,1,.85.49,2.9,2.9,0,0,1,.6.84,2.87,2.87,0,0,1,.23,1.17V29a2.82,2.82,0,0,1-.23,1.18,2.52,2.52,0,0,1-.6.81,2.76,2.76,0,0,1-2.73.51,2.45,2.45,0,0,1-.83-.51,2.17,2.17,0,0,1-.61-.81A2.67,2.67,0,0,1,65.5,29V23.22ZM67.06,29a1,1,0,0,0,.31.84,1.1,1.1,0,0,0,.74.26,1.08,1.08,0,0,0,.74-.26,1,1,0,0,0,.32-.84V23.22a1,1,0,0,0-.32-.84,1.09,1.09,0,0,0-.74-.27,1.11,1.11,0,0,0-.74.27,1,1,0,0,0-.31.84V29Zm5.53,2.57v1.68H71.25V30.16H72a6.27,6.27,0,0,0,.26-.67c.08-.25.15-.51.21-.79s.12-.55.17-.84.09-.58.12-.85,0-.46.06-.72,0-.54,0-.82,0-.56,0-.84,0-.55,0-.8V20.65h4.48v9.51h.88v3.05H77V31.53ZM74.39,22v1.79c0,.14,0,.35,0,.62s0,.56,0,.88l-.06,1c0,.32,0,.6-.07.84s-.06.44-.1.7-.1.53-.16.8-.13.55-.2.82a5.65,5.65,0,0,1-.25.73h2.36V22Z"/><path class="cls-1" d="M55.84,4.68a2.37,2.37,0,0,0,.35,1.46c1,1.75,2,3.54,3,5.29.09.15.16.28.26.43.35.59,1.05,0,1.53,0V14a4,4,0,0,0,.26,2,2.5,2.5,0,0,0,1.1,1.08,5.35,5.35,0,0,0,1.86.36c2,.17,4,.49,5.93.66.66.06,1.33.21,2,.21a1.55,1.55,0,0,0,.31,0l11.93-5.91c1.64-.82,5-2.48,5.35-2.78.81-.6,1.69-2.15.8-2.45a.55.55,0,0,0-.59.13c-.22.21-.22.79-.54,1.12a3,3,0,0,1-1,.66c-1.6.77-3.17,1.58-4.76,2.38l-.55.28-.29.16-6.69,3.36L75,15.78a10.88,10.88,0,0,1-1.15.55V12.55c.37-.08,1.28-.47,1.67-.62l3.31-1.26.56-.21,1.1-.42,3.34-1.27c1.85-.67,3.68-1.44,5.53-2.1l1.11-.42c.36-.14.86-.21.86-.7V3.29a3.13,3.13,0,0,0-.83-2.09,2.12,2.12,0,0,0-.2-.24,4.15,4.15,0,0,0-1-.67A3.54,3.54,0,0,0,87.88,0H80.25c-.54,0-12.33,1.53-12.93,1.6L58.45,2.71c-.88.11-1.26,0-2,.71a2,2,0,0,0-.58,1.26Zm7.25-1.39,15-1.89c.43-.07,1.83-.26,2.17-.26h7.8a2.3,2.3,0,0,1,2.19,2.43V5.06c0,.13-.25.17-.48.25l-1.63.62-1.08.41-1.11.43c-.34.14-.72.27-1.08.41-1.71.68-3.69,1.39-5.43,2.06l-2.18.83-1.08.41-3.3,1.24L72.52,11c-.12-.25-.28-.52-.38-.77L70.67,7.12c-.26-.52-.5-1-.75-1.54a2.16,2.16,0,0,0-.19-.37c-.94-1.38-1.94-1.38-3.53-1.56l-3.11-.36ZM58,3.88A10.11,10.11,0,0,1,59.32,4c.46.06.92.1,1.35.14,1.65.19,3.76.36,5.38.58a4.45,4.45,0,0,1,2.14.5A2.29,2.29,0,0,1,69,6.32l.5,1,2.46,5c.19.38.24.69.83.69v3.64c0,.7-.81.52-1,.49-.53-.05-1-.09-1.5-.16l-3-.33c-1-.09-2-.24-3-.34a4.23,4.23,0,0,1-1.41-.25,1.31,1.31,0,0,1-.66-1V6.9c0-.69.79-.57,1.24-.51.63.08,1.61.13,2.18.21s.93.07,1.42.14a1.61,1.61,0,0,0,.69,0,.56.56,0,0,0,0-1c-.18-.08-3.13-.34-3.55-.37l-.73-.07a2,2,0,0,0-1.95.48,2.2,2.2,0,0,0-.32.54,1.86,1.86,0,0,0-.12.78v3.57a4.84,4.84,0,0,1-.73.21c-.09-.14-.16-.28-.26-.43L57.42,6c-.3-.49-.64-1-.33-1.54A1,1,0,0,1,58,3.88Zm4.71,4a.92.92,0,0,1,.9-.94,12.29,12.29,0,0,1,1.4.14c.41,0,3.27.31,3.43.37a.57.57,0,0,1,.18.93.52.52,0,0,1-.32.16L66,8.31l-1.09-.12-.57-.06a5.24,5.24,0,0,0-.53-.05l0,.45c0,.08,0,.13,0,.28l0,.41c0,.09,0,.13,0,.28l0,.41c0,.09,0,.14,0,.28l0,.42c0,.08,0,.13,0,.28l0,.41c0,.09,0,.13,0,.28l0,.41c0,.09,0,.14,0,.28l0,.42c0,.08,0,.13,0,.28l0,.41c0,.09,0,.13,0,.28v.87c.25,0,.64.07.9.1l1.81.2c.87.11,1.87.19,2.72.3l1.78.19V14.15a.56.56,0,1,1,1.11,0V15.5a.94.94,0,0,1-.9,1c-.36,0-2.92-.33-3.47-.38-.39,0-.75-.06-1.13-.12-.56-.08-3.19-.32-3.43-.38a.79.79,0,0,1-.54-.71v-7Zm3.26,3.74a1.93,1.93,0,0,1,.24-1.11c.33-.53.81-.81,1.4-.45,1.37.84,1.08,3.44-.18,3.44-.89,0-1.46-1.12-1.46-1.88Zm-1.14-.17a3,3,0,0,1,.63-1.83,2.13,2.13,0,0,1,3.46.13,3.31,3.31,0,0,1-.23,4.42,2.18,2.18,0,0,1-3.18-.56A3.59,3.59,0,0,1,64.79,11.44Z"/><path class="cls-1" d="M80.16,13.51h0a.53.53,0,0,1,.53.53v14.9a.53.53,0,0,1-.53.53h0a.54.54,0,0,1-.54-.53V14A.54.54,0,0,1,80.16,13.51Z"/></g></g></svg>