<svg xmlns="http://www.w3.org/2000/svg" viewBox="0 0 483.27 513.45"><defs><style>.cls-1{fill:#0cf;fill-rule:evenodd;}</style></defs><g id="Слой_2" data-name="Слой 2"><g id="Слой_1-2" data-name="Слой 1"><path class="cls-1" d="M376.46,428.68c-1-.44.21-.48-1.51-.13-2.82.59-8.25,6.07-14,8.3-2.17-2-3.1-5.39-5.57-7.82-27.15,17-69.21,27.7-107.26,26A199.14,199.14,0,0,1,168,434.45l-21.94-12.39-4.72,7.28a4.33,4.33,0,0,1-.43.43c-6.4-3.55-16.44-12.11-22.45-17-7.78-6.32-26.06-26.83-31.34-35.22L94.53,372c-4.77-10.94-16-21.75-25.93-51.72C61.29,298.18,58,277.6,58.11,252.75l4.19-1.24C64.48,200.29,86.21,148,122.56,116l8.38-7.62c60.45-52.55,152.7-61.76,222.82-20.41,3.27,1.92,7.34,4.82,10.37,6.22,2.32-1.64.94-1.4,3.09-2.81l33,27.68c9.94,9.28,27.08,35.15,33.91,48.49,1.67,3.25,5,11.55,6.76,13.86l9-3.42c6.92,25,13,33.56,14.71,65.59a213.59,213.59,0,0,1-1.07,38c-.64,5.21-6.58,32-5.84,33.4,1.37-.89.29.28,1.15-1.17,2.58-4.32,6.59-32.62,7.1-37,4.57-39.57-5.09-82.25-22-115.88C424.46,122,389.37,87.14,350.22,68.24,291.39,39.83,223.65,38,162.39,68.6c-11.93,6-32.91,19.14-41.87,27.75l-11.87,11.32c-2.26,2.26-3.08,3.09-5.73,5.44-2.17,1.93-3.51,4.29-5.6,6.44-3.91,4-6.85,8.47-10.64,13.36C60.2,167.2,42,222.2,47.55,277.5c4.05,40.66,17,70.07,37.94,101.09,10.32,15.33,20.89,25,33.52,36.9,27.31,25.75,73.87,45.39,112.52,49.88A211.12,211.12,0,0,0,347.87,446.1C353.29,443.54,376,431.36,376.46,428.68Z"/><path class="cls-1" d="M479.32,375.24c-3.87,5.42-6.75,11.46-10.22,16.88-5.9,9.21-21.65,30.62-29,37.43-12.46,11.55-12.68,13.34-28,25.53-58.67,46.61-139.53,65-217.06,46C95,476.45,9.44,385.72,4.85,265.55c-2.5-65.41,21.09-122,51.32-161.56C126,12.7,250.79-22.42,360.55,26.79c26,11.64,37.29,20.7,57.48,36.08,5.37,4.09,9,8.2,13.78,12.59l30.38,35.19c3.74,5.45,7,10.74,10.82,16.13l3.74-2.11a140.66,140.66,0,0,0-10.45-16.49L441.69,78.39c-4.67-5.18-9.36-8.57-14-13.26-14.73-15-46.94-34.29-65.84-42.92C306.94-2.87,240.33-7.21,179.12,11.75,69.73,45.62-4.5,151.81.21,266.36,5.28,389.6,92.08,480.23,194.3,505.81c76.91,19.25,154.8.95,213.86-41.81,2.69-1.95,4.9-3.75,7.72-5.89,1.63-1.24,2.36-2.05,3.89-3.3a45.46,45.46,0,0,0,3.56-2.84c2.72-2.54,4.86-3.69,7.21-6.42s4.34-4.35,6.83-6.77,4.36-4.82,6.7-6.89c8.27-7.32,23.8-29,29.78-38.22,2.35-3.62,8-12.58,9.42-16.87Z"/><path class="cls-1" d="M193.43,97.56l3.19,9.12c14.21-3,15.56-6.7,39.63-9.66,37.52-4.61,77.45,4.78,108.23,25.81,2.88,2,4.89,3.84,7.65,5.22,2.41-2.78,4.08-5.08,6.09-7.8C325.29,94.16,280.38,82,235.84,86.74,225.33,87.87,200.87,92.87,193.43,97.56Z"/><path class="cls-1" d="M145.46,112.76a27.91,27.91,0,0,0,2.5,3.93l16.42-10.89C214.91,76.86,265.74,71,321.64,92.08c14.9,5.63,40.27,20.52,51.72,31.46,1.37,1.31,1.72,2,3.14,3.22,8.69,7.69,12.91,13,20,21.77,3,3.66,1.36,1.83,3.54,1.55,3.77-.48,1.07-1.69,3.48,1.65,1.28,1.78,1.62,2.5,2.88,4.37a159.24,159.24,0,0,1,15.11,27.31L428,200.78c.07.17.16.39.24.56s.2.37.3.52c.79,1.32.16.54,1.14,1.41,1.08-2.36-1.18-7.14-2.21-9.87-9.08-24.05-21.05-42.72-37.81-61.42-5.55-6.19-11.77-11.38-18.38-16.83-1.8-1.48-2.36-2-3.92-3.26a179.18,179.18,0,0,0-45.69-25.51C269,67.16,210.36,70.84,162.44,100.64,156.45,104.36,150.31,108.32,145.46,112.76Z"/><path class="cls-1" d="M151.44,394.39c1.66,2.9-.07,1.37,5.32,4.94,36.21,24,72.5,35.27,118.56,30.56l-.67-9.52c-49.3,2.89-73.41-5.6-108.91-26.34l-4.8,6.05C157.78,398.31,154.13,394.79,151.44,394.39Z"/><path class="cls-1" d="M92,313.39l8.15-2.57.07-3a30,30,0,0,0-.88-3.08l-4.83-20a156.39,156.39,0,0,1-2.37-31.23l2.22-1.05.58-.27c.14-.07.41-.17.6-.28l.93-13.85-12.91-1.25C81.13,263.09,83.42,290.73,92,313.39Z"/><path class="cls-1" d="M351.22,397.35c3.38-1.5,7.23-4.87,10.31-7.21,7.15-5.45,21.54-19.9,26.12-26.2l-7.52-6.13c-2.82,1.85-2.23,2.18-4,4.52-3.38,4.42-24.41,23.66-30.48,26.5Z"/><path class="cls-1" d="M361.21,135.28l8.48,8.72c3.36,3.48,6.59,5.35,8.47,9.84a25.43,25.43,0,0,0,8.2-6.69l-13.48-14.37c-1.79-1.64-2.89-3.19-4.57-4.81-2.63,1.36-1.87,1.54-3.86,3.54C362.3,133.68,362.74,132.78,361.21,135.28Z"/></g></g></svg>