<svg xmlns="http://www.w3.org/2000/svg" viewBox="0 0 182.6 170.2"><defs><style>.cls-1{fill:#e6e6e6;fill-rule:evenodd;}</style></defs><g id="Слой_2" data-name="Слой 2"><g id="Слой_1-2" data-name="Слой 1"><path class="cls-1" d="M176.56,81a82.78,82.78,0,0,1,.24,19.27,85.44,85.44,0,0,1-5.11,21.7c-3.92,10.4-10.41,21.09-18.43,28.84a18.05,18.05,0,0,0-3.18,3.53,16.77,16.77,0,0,1,3.36,3.66c3.28-1.52,11.17-11.93,13.56-15.38a86.8,86.8,0,0,0,9.83-18.94,91.61,91.61,0,0,0,5.42-23.34c.6-6.48.62-20.7-1.42-26.44L175.69,75C175.77,76.71,176.33,79.12,176.56,81Z"/><path class="cls-1" d="M.1,86.11c1.42.08,3.78.56,4.85.15.46-1.43.76-6.52,1.13-8.58a86.88,86.88,0,0,1,7-22.29,91.44,91.44,0,0,1,11.23-18l4.67-5.27-2.94-3c.8-.81,5.5-4.75,3.38-4.43-.67.11-2.12,2-3.12,3a55.18,55.18,0,0,0-5.92,6.51C12.66,44.14,7.88,52.07,3.86,65,2.77,68.43-.63,82.69.1,86.11Z"/><path class="cls-1" d="M77.6,1.22l.8,4.86c5.42-.16,7.79-1.22,15.69-1,5.69.19,9.86,1,15.17,1.66L109,8.48l7.29,1.89c.77-.94,1.64-5,2.08-6.45C112.13.51,84.52-1.39,77.6,1.22Z"/><path class="cls-1" d="M9.8,128.61c1.61,5.39,8.31,14.95,12.1,19.8a15,15,0,0,0,2,2.33A37.93,37.93,0,0,0,28,147.35c-.53-.8-1.23-1.56-1.9-2.39l-5.41-7.5c-1.93-2.92-5.87-10.77-6.07-11Z"/><path class="cls-1" d="M137,170.2c2.07-.81,9.68-6,11.84-8.09-1-1.36-2.12-2.69-3.31-4.05-1.94,1.19-3.56,2.65-5.56,4l-5.6,3.62A28.54,28.54,0,0,0,137,170.2Z"/></g></g></svg>